<?xml version="1.0" standalone="no"?>
<!DOCTYPE svg PUBLIC "-//W3C//DTD SVG 20010904//EN"
 "http://www.w3.org/TR/2001/REC-SVG-20010904/DTD/svg10.dtd">
<svg version="1.0" xmlns="http://www.w3.org/2000/svg"
 width="1169.000000pt" height="261.000000pt" viewBox="0 0 1169.000000 261.000000"
 preserveAspectRatio="xMidYMid meet">

<g transform="translate(0.000000,261.000000) scale(0.100000,-0.100000)"
fill="#000000" stroke="none">
<path d="M0 1305 l0 -1305 5845 0 5845 0 0 1305 0 1305 -5845 0 -5845 0 0
-1305z m1757 863 l63 -62 0 -80 0 -80 -57 -58 -57 -58 -86 0 -86 0 -57 58 -57
58 0 79 0 79 62 63 62 63 75 0 75 0 63 -62z m-400 -400 l63 -62 0 -85 0 -85
52 -53 52 -53 91 0 91 0 57 58 57 58 0 79 0 79 62 63 62 63 75 0 75 0 63 -62
63 -62 0 -80 0 -80 -57 -58 -57 -58 -85 0 -85 0 -58 -57 -58 -57 0 -92 0 -91
59 -56 60 -57 77 0 78 0 63 62 63 62 0 80 0 80 62 63 62 63 75 0 75 0 63 -62
63 -62 0 -81 0 -81 -58 -57 -58 -57 -85 0 -85 0 -57 -58 -57 -58 0 -84 0 -84
-57 -58 -57 -58 -85 0 -85 0 -58 57 -58 57 0 87 0 86 -59 56 -60 57 -83 0 -84
0 -57 -58 -57 -58 0 -85 0 -85 -58 -57 -58 -57 -84 0 -84 0 -58 57 -58 57 0
80 0 80 -62 63 -62 63 -81 0 -81 0 -57 58 -57 58 0 79 0 79 62 63 62 63 75 0
75 0 63 -62 63 -62 0 -87 0 -86 59 -56 60 -57 77 0 78 0 63 62 63 62 0 86 0
86 -58 57 -58 57 -85 0 -85 0 -57 58 -57 58 0 79 0 79 62 63 62 63 75 0 75 0
63 -62z m8424 -51 c93 -62 90 -200 -6 -254 -79 -44 -168 -20 -208 57 -23 45
-19 130 9 161 55 62 143 78 205 36z m-5764 -149 l143 -143 0 -200 0 -200 -142
-142 -143 -143 -280 0 -280 0 -108 108 -107 107 60 60 60 59 83 -82 82 -82
210 0 210 0 92 92 c63 63 93 100 93 115 l0 23 -263 0 -262 0 -85 85 -85 85
348 0 347 0 0 22 c0 15 -31 54 -92 115 l-93 93 -215 0 -215 0 -77 -77 -78 -77
-60 59 -60 60 102 102 103 103 285 0 285 0 142 -142z m563 -343 l0 -485 -85 0
-85 0 0 485 0 485 85 0 85 0 0 -485z m860 0 l0 -485 -85 0 -85 0 0 200 0 200
-248 0 -247 0 -85 85 -85 85 333 0 332 0 0 200 0 200 85 0 85 0 0 -485z m1237
343 l143 -143 0 -200 0 -200 -142 -142 -143 -143 -280 0 -280 0 -142 142 -143
143 0 205 0 205 137 137 138 138 285 0 285 0 142 -142z m1301 58 l82 -84 0
-113 c0 -109 -1 -114 -27 -141 l-27 -28 57 -58 57 -58 0 -119 0 -120 -82 -82
-83 -83 -442 0 -443 0 0 485 0 485 413 0 413 0 82 -84z m1232 -1 l85 -85 106
-393 c58 -215 104 -395 102 -399 -2 -5 -42 -8 -87 -8 l-84 0 -16 68 c-10 37
-24 91 -32 120 l-15 52 -247 0 -247 0 -80 80 -80 80 303 0 c239 0 302 3 302
13 0 7 -18 78 -39 157 -21 80 -44 164 -50 188 l-12 42 -223 0 -223 0 -98 -367
c-54 -203 -102 -383 -107 -400 l-9 -33 -84 0 c-47 0 -85 2 -85 6 0 3 48 184
106 402 l106 397 81 83 82 82 230 0 230 0 85 -85z"/>
<path d="M9640 1687 c-84 -66 -56 -190 46 -204 50 -6 78 7 104 50 31 50 26 93
-14 133 -28 28 -41 34 -77 34 -24 0 -51 -6 -59 -13z m112 -53 c9 -20 9 -30 0
-45 -9 -14 -9 -25 -2 -39 13 -25 13 -30 -5 -30 -9 0 -21 11 -27 25 -15 33 -38
32 -38 -1 0 -19 -5 -25 -17 -22 -15 3 -19 16 -21 71 l-3 67 51 0 c44 0 52 -3
62 -26z"/>
<path d="M9680 1621 c0 -15 6 -21 21 -21 14 0 19 5 17 17 -5 26 -38 29 -38 4z"/>
<path d="M5947 1452 l-87 -87 0 -135 0 -135 93 -93 92 -92 210 0 210 0 93 93
92 92 0 130 0 130 -93 93 -92 92 -215 0 -215 0 -88 -88z"/>
<path d="M7240 1225 l0 -315 323 0 323 0 37 38 c30 31 37 45 37 78 0 33 -7 46
-38 77 l-38 37 -225 0 -224 0 -85 85 -85 85 276 0 275 0 37 38 c32 32 37 44
37 83 0 38 -5 50 -33 77 l-33 32 -292 0 -292 0 0 -315z"/>
</g>
</svg>
